<svg xmlns="http://www.w3.org/2000/svg" width="200px" viewBox="0 0 244.66 74.94"><defs><style>.cls-1,.cls-4{isolation:isolate;font-size:37px;}.cls-1{font-family:GravurLL-CondBold, Gravur LL;font-weight:700;}.cls-2{letter-spacing:-0.02em;}.cls-3{fill:none;stroke:#000;stroke-linecap:round;stroke-linejoin:round;stroke-width:3.25px;}.cls-4{font-family:GravurLL-CondLight, Gravur LL;font-weight:300;}.cls-5{letter-spacing:-0.02em;}.cls-6{letter-spacing:-0.02em;}.cls-7{letter-spacing:0em;}.cls-8{letter-spacing:-0.03em;}</style></defs><title>Asset 1</title><g id="Layer_2" data-name="Layer 2"><g id="Logo"><text class="cls-1" transform="translate(28.51 31.39)">IN<tspan class="cls-2" x="31.26" y="0">F</tspan><tspan x="48.69" y="0">OGRAPHICS</tspan></text><circle class="cls-3" cx="8.8" cy="14.14" r="7.1"/><path class="cls-3" d="M3.4,53.64A7.34,7.34,0,0,0,4,63.84a7.3,7.3,0,0,0,9.6,0,7.44,7.44,0,0,0,.6-10.2l-3.4-4a3.62,3.62,0,0,1,0-4.6l3.4-4a7.34,7.34,0,0,0-.6-10.2,7.3,7.3,0,0,0-9.6,0A7.44,7.44,0,0,0,3.4,41l3.4,4a3.62,3.62,0,0,1,0,4.6Z"/><text class="cls-4" transform="translate(27.58 66.87)">OU<tspan class="cls-5" x="41.44" y="0">T </tspan><tspan class="cls-6" x="65.67" y="0">T</tspan><tspan class="cls-7" x="81.36" y="0">O </tspan><tspan class="cls-8" x="111.44" y="0">L</tspan><tspan class="cls-7" x="127.17" y="0">UNCH</tspan></text></g></g></svg>