<?xml version="1.0" encoding="utf-8"?>
<!-- Generator: Adobe Illustrator 23.0.3, SVG Export Plug-In . SVG Version: 6.00 Build 0)  -->
<svg version="1.1" id="Logo" xmlns="http://www.w3.org/2000/svg" xmlns:xlink="http://www.w3.org/1999/xlink" x="0px" y="0px"
	 viewBox="0 0 304.2 88.2" style="enable-background:new 0 0 304.2 88.2;" xml:space="preserve">
<style type="text/css">
	.st0{font-family:'GravurLL-CondBold';}
	.st1{font-size:37px;}
	.st2{fill:none;stroke:#000000;stroke-width:3.25;stroke-linecap:round;stroke-linejoin:round;stroke-miterlimit:10;}
	.st3{font-family:'GravurLL-CondLight';}
</style>
<g>
	<text transform="matrix(1 0 0 1 55.7148 39.2506)" class="st0 st1">Infographics</text>
	<circle class="st2" cx="36" cy="22" r="7.1"/>
	<path class="st2" d="M30.6,61.5c-2.5,3-2.4,7.6,0.6,10.2c1.4,1.2,3.1,1.8,4.8,1.8c1.7,0,3.4-0.6,4.8-1.8c2.9-2.6,3.1-7.2,0.6-10.2
		l-3.4-4c-1.1-1.3-1.1-3.3,0-4.6l3.4-4c2.5-3,2.4-7.6-0.6-10.2c-1.4-1.2-3.1-1.8-4.8-1.8c-1.7,0-3.4,0.6-4.8,1.8
		c-2.9,2.6-3.1,7.2-0.6,10.2l3.4,4c1.1,1.3,1.1,3.3,0,4.6L30.6,61.5z"/>
	<text transform="matrix(1 0 0 1 54.7861 74.7284)" class="st3 st1">OUT TO LUNCH</text>
</g>
</svg>
