<svg xmlns="http://www.w3.org/2000/svg" viewBox="0 0 8.78 31.4"><title>Asset 1</title><g id="Layer_2" data-name="Layer 2"><g id="Layer_1-2" data-name="Layer 1"><path d="M4.39,8.87A4.33,4.33,0,0,1,2,8.12,4.45,4.45,0,0,1,1.29,1.3,4.37,4.37,0,0,1,8,2a4.48,4.48,0,0,1-.55,5.6,4.45,4.45,0,0,1-3.1,1.3Zm0-7.21A2.71,2.71,0,0,0,1.85,3.37a2.81,2.81,0,0,0,.59,3,2.74,2.74,0,0,0,3.87,0A3.16,3.16,0,0,0,6.68,6,2.78,2.78,0,0,0,4.39,1.65Zm0,29.74a4.36,4.36,0,0,1-2.94-1.13A4.61,4.61,0,0,1,1.09,24l1.71-2a1.05,1.05,0,0,0,0-1.28l-1.71-2a4.61,4.61,0,0,1,.37-6.32,4.38,4.38,0,0,1,5.87,0,4.61,4.61,0,0,1,.37,6.32L6,20.64a1.05,1.05,0,0,0,0,1.28L7.7,24a4.61,4.61,0,0,1-.37,6.32A4.36,4.36,0,0,1,4.39,31.4Zm0-1.65A2.76,2.76,0,0,0,6.25,29a2.93,2.93,0,0,0,.2-4L4.74,23a2.7,2.7,0,0,1-.35-.53A3,3,0,0,1,4,23l-1.7,2a2.94,2.94,0,0,0,.19,4,2.77,2.77,0,0,0,1.86.71Zm0-17a2.75,2.75,0,0,0-1.88.71,2.93,2.93,0,0,0-.19,4l1.7,2a2.28,2.28,0,0,1,.34.53,2.7,2.7,0,0,1,.35-.53l1.71-2a2.93,2.93,0,0,0-.2-4,2.76,2.76,0,0,0-1.85-.71Z"/></g></g></svg>