<svg width="34" height="47" viewBox="0 0 34 47" fill="none" xmlns="http://www.w3.org/2000/svg">
<path d="M34 17C34 27.5 25 31.5 17 46.5C9.5 31.5 0 26.3888 0 17C0 7.61116 7.61116 0 17 0C26.3888 0 34 7.61116 34 17Z" fill="black"/>
<path d="M17.0666 12.3992C16.4964 12.3931 15.9407 12.2188 15.4693 11.898C15.105 11.6553 14.7988 11.3353 14.5724 10.9606C14.346 10.586 14.2052 10.166 14.1599 9.73064C14.1145 9.29527 14.1659 8.85528 14.3102 8.44204C14.4545 8.02881 14.6883 7.65253 14.9948 7.34006C15.3019 7.03761 15.672 6.80686 16.0788 6.66437C16.4855 6.52187 16.9187 6.47117 17.3474 6.51589C17.7761 6.5606 18.1895 6.69964 18.5581 6.92301C18.9266 7.14639 19.2412 7.44857 19.4792 7.80788C19.8548 8.3798 20.0232 9.06312 19.9563 9.74407C19.8894 10.425 19.5913 11.0625 19.1116 11.5504C18.5612 12.0998 17.8175 12.4117 17.0399 12.4192L17.0666 12.3992ZM17.0666 7.58065C16.7014 7.57779 16.3439 7.6854 16.041 7.88934C15.738 8.09329 15.5038 8.38405 15.3691 8.72347C15.2342 9.06006 15.1997 9.42848 15.2697 9.78426C15.3396 10.14 15.5111 10.468 15.7634 10.7284C16.1067 11.0708 16.5717 11.2631 17.0566 11.2631C17.5414 11.2631 18.0065 11.0708 18.3498 10.7284C18.4389 10.653 18.5216 10.5703 18.597 10.4811C18.7879 10.2022 18.8991 9.87656 18.9186 9.53917C18.9381 9.20178 18.8652 8.86546 18.7078 8.56641C18.5504 8.26736 18.3143 8.01692 18.0252 7.84204C17.736 7.66717 17.4045 7.57448 17.0666 7.57397V7.58065ZM17.0666 27.4563C16.3404 27.4582 15.6397 27.1889 15.1018 26.7011C14.5395 26.1624 14.2022 25.4307 14.1575 24.6533C14.1129 23.8759 14.3643 23.1104 14.8612 22.5108L16.004 21.1742C16.0983 21.0515 16.1494 20.9012 16.1494 20.7464C16.1494 20.5917 16.0983 20.4414 16.004 20.3187L14.8612 18.9821C14.3553 18.3796 14.0992 17.6064 14.1451 16.8211C14.1911 16.0357 14.5358 15.2977 15.1084 14.7583C15.6463 14.2728 16.3453 14.0039 17.0699 14.0039C17.7946 14.0039 18.4935 14.2728 19.0314 14.7583C19.6041 15.2977 19.9488 16.0357 19.9947 16.8211C20.0407 17.6064 19.7845 18.3796 19.2787 18.9821L18.1426 20.2653C18.0483 20.3879 17.9972 20.5383 17.9972 20.693C17.9972 20.8477 18.0483 20.9981 18.1426 21.1207L19.2787 22.5108C19.7845 23.1133 20.0407 23.8865 19.9947 24.6718C19.9488 25.4572 19.6041 26.1952 19.0314 26.7345C18.4885 27.2102 17.7883 27.4674 17.0666 27.4563V27.4563ZM17.0666 26.3536C17.5291 26.3483 17.9728 26.1694 18.3097 25.8524C18.667 25.507 18.8797 25.0386 18.9045 24.5421C18.9294 24.0457 18.7645 23.5585 18.4433 23.1791L17.3005 21.8425C17.2089 21.734 17.1304 21.6151 17.0666 21.4883C16.993 21.6155 16.9056 21.7343 16.806 21.8425L15.6698 23.1791C15.3493 23.5583 15.1843 24.0448 15.2078 24.5407C15.2314 25.0366 15.4418 25.5053 15.7968 25.8524C16.138 26.1591 16.581 26.3282 17.0399 26.3269L17.0666 26.3536ZM17.0666 14.9923C16.6029 14.9863 16.1541 15.1558 15.8102 15.4668C15.4537 15.8131 15.2423 16.2819 15.2187 16.7783C15.1951 17.2747 15.3612 17.7615 15.6832 18.14L16.8193 19.4766C16.9111 19.5836 16.9876 19.7028 17.0465 19.8309C17.1103 19.704 17.1888 19.5851 17.2805 19.4766L18.4233 18.14C18.7444 17.7607 18.9093 17.2734 18.8845 16.777C18.8597 16.2806 18.647 15.8122 18.2896 15.4668C17.9504 15.161 17.5099 14.9919 17.0532 14.9923H17.0666Z" fill="white"/>
</svg>
